<?xml version="1.0" encoding="UTF-8"?> <svg xmlns="http://www.w3.org/2000/svg" width="2016" height="2547" viewBox="0 0 2016 2547" fill="none"> <path d="M1989.94 12.2422C2021.75 254.786 1995.09 505.479 1924.58 738.513C1874.27 904.768 1811.64 1067.78 1735.74 1224.08C1652.74 1395 1546.9 1528.81 1409.96 1659.84C1127.46 1930.16 779.759 2116.54 436.758 2297.92C356.736 2340.23 276.865 2382.67 195.013 2421.39C162.423 2436.8 129.491 2451.48 96.9667 2467.04C79.8041 2475.25 41.5137 2511.43 46.1278 2492.98C57.7292 2446.57 137.624 2391.63 168.038 2356.54C212.655 2305.06 258.703 2255.83 312.254 2213.36C362.612 2173.42 232.533 2307.2 226.139 2314C171.761 2371.87 123.029 2439.4 61.172 2489.86C44.282 2503.64 28.5475 2518.84 12.4081 2533.44C5.86037 2539.36 156.793 2521.15 170.113 2518.39C337.131 2483.79 511.283 2449.4 682.652 2449.4" stroke="black" stroke-width="24" stroke-linecap="round" stroke-linejoin="round"></path> </svg> 